<?xml version="1.0" encoding="UTF-8"?>
<svg xmlns="http://www.w3.org/2000/svg" xmlns:xlink="http://www.w3.org/1999/xlink" width="192pt" height="256pt" viewBox="0 0 192 256" version="1.1">
<g id="surface11">
<path style=" stroke:none;fill-rule:nonzero;fill:rgb(0%,0%,0%);fill-opacity:1;" d="M 107.515625 36.019531 L 63.03125 80.5 L 12 80.5 C 5.371094 80.5 0 85.871094 0 92.5 L 0 164.5 C 0 171.125 5.371094 176.5 12 176.5 L 63.03125 176.5 L 107.515625 220.976562 C 115.03125 228.488281 128 223.210938 128 212.488281 L 128 44.511719 C 128 33.773438 115.019531 28.519531 107.515625 36.019531 Z M 169.113281 90.058594 C 163.324219 86.894531 156.019531 88.980469 152.808594 94.785156 C 149.613281 100.589844 151.730469 107.886719 157.535156 111.089844 C 163.988281 114.640625 168 121.308594 168 128.5 C 168 135.691406 163.988281 142.359375 157.539062 145.90625 C 151.734375 149.109375 149.621094 156.40625 152.816406 162.210938 C 156.03125 168.039062 163.339844 170.109375 169.121094 166.933594 C 183.234375 159.160156 192.003906 144.433594 192.003906 128.496094 C 192.003906 112.554688 183.234375 97.835938 169.113281 90.058594 Z M 169.113281 90.058594 "/>
</g>
</svg>
