<?xml version="1.0" encoding="UTF-8"?>
<svg xmlns="http://www.w3.org/2000/svg" xmlns:xlink="http://www.w3.org/1999/xlink" width="224pt" height="256pt" viewBox="0 0 224 256" version="1.1">
<g id="surface1">
<path style=" stroke:none;fill-rule:nonzero;fill:rgb(0%,0%,0%);fill-opacity:1;" d="M 200 240 L 24 240 C 10.75 240 0 229.25 0 216 L 0 40 C 0 26.75 10.75 16 24 16 L 200 16 C 213.25 16 224 26.75 224 40 L 224 216 C 224 229.25 213.25 240 200 240 Z M 119.050781 88.949219 L 51.199219 156.800781 L 48.050781 185.351562 C 47.648438 189.148438 50.851562 192.398438 54.699219 192 L 83.25 188.851562 L 151.101562 121 C 152.25 119.851562 152.25 117.949219 151.101562 116.75 L 123.351562 89 C 122.101562 87.800781 120.199219 87.800781 119.050781 88.949219 Z M 172.5 82.550781 L 157.449219 67.5 C 152.75 62.800781 145.148438 62.800781 140.5 67.5 L 128.949219 79.050781 C 127.800781 80.199219 127.800781 82.101562 128.949219 83.300781 L 156.699219 111.050781 C 157.851562 112.199219 159.75 112.199219 160.949219 111.050781 L 172.5 99.5 C 177.148438 94.851562 177.148438 87.25 172.5 82.550781 Z M 172.5 82.550781 "/>
</g>
</svg>
